/* XPM */
static char *top_right_inactive[] = {
/* columns rows colors chars-per-pixel */
"8 29 4 1 ",
"  c #3A3535",
". c #3A3636",
"X c #3A3737",
"o c None",
/* pixels */
"... .ooo",
"......Xo",
".......o",
"........",
"....... ",
"........",
"........",
"........",
"........",
"........",
"........",
"........",
"........",
"........",
"........",
"........",
"........",
"........",
"........",
"........",
"........",
"........",
"........",
"........",
"........",
"........",
"........",
"........",
"........"
};
