/* XPM */
static char *bottom_right_active[] = {
/* columns rows colors chars-per-pixel */
"16 16 4 1 ",
"  c #3A3636",
". c #3B3636",
"X c #3A3737",
"o c None",
/* pixels */
"ooooooooooo     ",
"ooooooooooo     ",
"ooooooooooo     ",
"ooooooooooo     ",
"ooooooooooo     ",
"ooooooooooo     ",
"ooooooooooo     ",
"ooooooooooo     ",
"ooooooooooo     ",
"ooooooooooo     ",
"oooooooooo.     ",
"                ",
"               X",
"               o",
"              .o",
"            Xooo"
};
