/* XPM */
static char *bottom_left_active[] = {
/* columns rows colors chars-per-pixel */
"16 16 3 1 ",
"  c #E8E8E7",
". c gray91",
"X c None",
/* pixels */
"     XXXXXXXXXXX",
"     XXXXXXXXXXX",
"     XXXXXXXXXXX",
"     XXXXXXXXXXX",
"     XXXXXXXXXXX",
"     XXXXXXXXXXX",
"     XXXXXXXXXXX",
"     XXXXXXXXXXX",
"     XXXXXXXXXXX",
"     XXXXXXXXXXX",
"      XXXXXXXXXX",
"                ",
"                ",
"X               ",
"X.              ",
"XXX             "
};
